<?xml version="1.0" encoding="UTF-8"?>
<svg xmlns="http://www.w3.org/2000/svg" xmlns:xlink="http://www.w3.org/1999/xlink" width="1080pt" height="675.000002pt" viewBox="0 0 1080 675.000002" version="1.2">
<defs>
<clipPath id="clip1">
  <path d="M 0.796875 618 L 1079.199219 618 L 1079.199219 674 L 0.796875 674 Z M 0.796875 618 "/>
</clipPath>
</defs>
<g id="surface1">
<g clip-path="url(#clip1)" clip-rule="nonzero">
<path style=" stroke:none;fill-rule:nonzero;fill:rgb(17.248535%,18.429565%,19.999695%);fill-opacity:1;" d="M 1048.460938 651.429688 C 1038.257812 633.578125 1012.183594 634.617188 1003.429688 653.21875 C 1000.097656 660.289062 1007.585938 644.375 1003.429688 653.21875 C 994.882812 671.371094 971.71875 676.960938 955.84375 664.683594 C 941.433594 653.558594 937.308594 650.367188 924.945312 640.8125 C 904.808594 625.25 875.332031 634.167969 867.207031 658.28125 C 864.398438 666.617188 870.523438 648.433594 867.207031 658.28125 C 861.273438 675.882812 838.011719 679.574219 826.929688 664.679688 C 818.648438 653.542969 819.933594 655.277344 811.628906 644.113281 C 799.234375 627.457031 773.863281 628.828125 763.335938 646.726562 C 758.40625 655.097656 758.453125 655.023438 751.6875 666.527344 C 746.355469 675.589844 732.964844 674.636719 728.960938 664.917969 C 724.363281 653.742188 725.917969 657.527344 722.722656 649.761719 C 715.046875 631.121094 690.390625 627.164062 677.273438 642.472656 C 671.773438 648.890625 683.007812 635.785156 677.273438 642.472656 C 662.9375 659.195312 636.972656 658.902344 623.023438 641.859375 C 614.304688 631.203125 622.511719 641.238281 615.699219 632.910156 C 598.316406 611.671875 564.992188 614.6875 551.699219 638.699219 C 547.730469 645.875 549.554688 642.570312 542.089844 656.066406 C 537.511719 664.332031 525.726562 664.617188 520.753906 656.574219 C 514.867188 647.0625 515.039062 647.339844 510.832031 640.535156 C 501.566406 625.554688 480.042969 624.835938 469.808594 639.164062 C 462.738281 649.046875 460.289062 652.476562 452.523438 663.335938 C 445.488281 673.175781 430.132812 670.152344 427.359375 658.371094 C 425.039062 648.5 427.097656 657.242188 425.253906 649.402344 C 421.816406 634.796875 402.324219 631.847656 394.714844 644.78125 C 389.5625 653.542969 392.386719 648.734375 386.550781 658.664062 C 378.652344 672.09375 359.242188 672.09375 351.339844 658.664062 C 345.5 648.734375 351.046875 658.167969 346.578125 650.5625 C 335.898438 632.40625 309.445312 633 299.589844 651.617188 C 295.675781 659.007812 304.097656 643.09375 299.589844 651.617188 C 291.832031 666.265625 270.503906 665.1875 264.257812 649.835938 C 260.941406 641.671875 265.996094 654.089844 262.484375 645.46875 C 257.855469 634.078125 241.351562 635.320312 238.472656 647.273438 C 236.480469 655.535156 238.828125 645.785156 236.617188 654.972656 C 233.929688 666.128906 218.6875 667.6875 213.804688 657.300781 C 209.261719 647.648438 213.527344 656.710938 209.777344 648.742188 C 202.609375 633.515625 180.773438 634.054688 174.371094 649.617188 C 171.15625 657.40625 175.46875 646.9375 171.566406 656.410156 C 166.304688 669.207031 148.511719 670.0625 142.039062 657.832031 C 136.863281 648.074219 137.652344 649.550781 132.484375 639.792969 C 126.460938 628.425781 109.71875 629.996094 105.921875 642.285156 C 102.355469 653.820312 102.871094 652.140625 99.539062 662.925781 C 95.359375 676.457031 76.863281 678.089844 70.378906 665.492188 C 64.566406 654.199219 67.628906 660.15625 62.507812 650.210938 C 54.523438 634.691406 31.832031 636.292969 26.105469 652.785156 C 19.828125 670.855469 -68.472656 691.0625 -93.578125 763.328125 C -18.785156 763.328125 430.835938 765.597656 1255.273438 770.136719 C 1118.570312 693.054688 1049.636719 653.488281 1048.460938 651.429688 Z M 1048.460938 651.429688 "/>
</g>
</g>
</svg>
